<?xml version="1.0" encoding="utf-8"?>
<!-- Uploaded to: SVG Repo, www.svgrepo.com, Generator: SVG Repo Mixer Tools -->
<svg fill="#000000" width="800px" height="800px" viewBox="0 0 32 32" version="1.1" xmlns="http://www.w3.org/2000/svg">
<title>droplet-splash</title>
<path d="M25.163 19.626c1.694 0.806 2.733 1.824 2.733 2.944 0 2.584-5.398 4.67-12.062 4.67s-12.062-2.085-12.062-4.67c0-1.12 1.039-2.138 2.733-2.944-3.211 1.041-5.284 2.617-5.284 4.365 0 3.13 6.54 5.685 14.613 5.685s14.613-2.555 14.613-5.685c0-1.748-2.073-3.325-5.284-4.365zM15.833 25.92c4.383 0 7.944-1.396 7.944-3.096 0-0.955-1.152-1.77-2.915-2.335 0.932 0.439 1.531 0.961 1.531 1.573 0 1.403-2.941 2.538-6.559 2.538s-6.559-1.135-6.559-2.538c0-0.613 0.598-1.134 1.531-1.574-1.763 0.565-2.915 1.38-2.915 2.335 0 1.7 3.561 3.096 7.944 3.096zM15.505 5.624c0 0.001 0 0.002 0 0.003 0-0.001 0-0.002 0-0.003l-0 0zM15.688 23.007c2.78 0 5.186-2.144 6.45-5.289-0.4 0.434-0.792 0.687-1.13 0.713-1.016 0.079-1.426-1.868-1.239-4.903-0.412 0.861-0.887 1.397-1.385 1.397-1.425 0-2.603-3.993-2.879-9.297-0.276 5.304-1.453 9.297-2.879 9.297-0.354 0-0.706-0.263-1.020-0.713 0.081 2.619-0.306 4.292-1.239 4.219-0.338-0.026-0.73-0.279-1.13-0.713 1.264 3.145 3.67 5.289 6.45 5.289zM16.968 2.756c0 0.84-0.681 1.52-1.52 1.52s-1.52-0.681-1.52-1.52c0-0.84 0.681-1.52 1.52-1.52s1.52 0.681 1.52 1.52z"></path>
</svg>